<svg xmlns="http://www.w3.org/2000/svg" width="270" height="270" viewBox="0 0 270 270"><path fill="#408eef" d="M78 115c6.69.485 12.125 3.004 18.188 5.75q3.097 1.379 6.195 2.754l2.966 1.325c3.048 1.346 6.122 2.615 9.213 3.859 17.23 7.105 17.23 7.105 21.438 11.312.175 2.437.232 4.76.195 7.195l-.008 2.144c-.011 2.262-.037 4.524-.062 6.786q-.016 2.299-.027 4.598-.035 5.638-.098 11.277l3.25-.562c3.154-.368 4.848-.483 7.75.562l-.08-2.874a983 983 0 0 1-.195-10.578q-.037-2.288-.102-4.574c-.061-2.195-.09-4.388-.111-6.583l-.08-4C147 140 147 140 149.34 137.639c2.922-1.8 5.842-3.295 8.972-4.7l3.497-1.57c2.944-1.262 5.894-2.388 8.91-3.462 3.956-1.571 7.776-3.452 11.62-5.275a193 193 0 0 1 13.903-5.904c1.752-.593 1.752-.593 2.758-1.727 5.53-.235 5.53-.235 8 1v46c-6.858-2.743-6.858-2.743-9-5-.454-3.094-.454-3.094-.39-6.855.005-.662.01-1.324.017-2.005a467 467 0 0 1 .123-6.327q.03-2.148.055-4.295c.044-3.507.113-7.012.195-10.518-5.132 1.868-10.067 3.894-15 6.25a784 784 0 0 1-16.75 7.688l-2.059.928C161.284 143.148 159.215 144 156 144v47l5-3h4v-7l2.125 1.063c4.703 1.533 7.995.342 12.418-1.692q1.83-.954 3.644-1.934C189.613 175 189.613 175 193 175v-2l-2.187-.75c-2.813-1.25-2.813-1.25-5-3.312-3.078-2.12-4.253-2.195-7.875-2.375-3.657-.246-4.651-.336-7.625-2.688-1.745-3.822-1.479-5.867-.313-9.875 1.688-2.437 1.688-2.437 4-4 3.716-.633 5.423-.335 8.688 1.563 2.312 2.437 2.312 2.437 3.75 6 1.919 4.222 3.385 4.682 7.562 6.437a524 524 0 0 1 5 4c2.129 1.214 4.26 2.41 6.426 3.559C207 173 207 173 207.23 175.66L207 178c-6.014 3.153-12 6.085-18.375 8.438-6.008 2.23-11.623 5-17.312 7.921-3.704 1.835-7.453 3.379-11.325 4.817-2.245.855-2.245.855-4.988 2.824-3.062.313-3.062.313-6 0-2.818-4.227-2.42-8.448-2.566-13.371-.08-1.88-.25-3.756-.434-5.629-2.957-1.478-5.742-1.06-9-1l-.113 3.613q-.099 2.35-.2 4.7l-.068 2.38-.107 2.295-.08 2.11c-.559 2.46-1.432 3.396-3.432 4.902-5.512 0-9.392-2.069-14.195-4.61-3.044-1.509-6.12-2.706-9.305-3.89-4.881-1.825-9.468-3.911-14.09-6.309-2.513-1.242-5.05-2.293-7.66-3.316l-2.48-.984q-2.914-1.141-5.832-2.266C77 179 77 179 76.348 175.898L76 173l21-14a169 169 0 0 0 2-6c2.381-2.381 3.107-2.345 6.375-2.437 3.516.09 4.38.244 7.25 2.5 1.8 3.847 1.573 5.893.375 9.937-1.5 1.875-1.5 1.875-4 3-1.394.131-2.79.232-4.187.313-5.61.427-9.574 3.12-13.813 6.687l-1 2 1.688.516c4.003 1.271 7.575 2.576 11.187 4.734 4.939 2.64 9.785 1.653 15.125.75v2.75l1 3.25 8 4-1-46c-6.261-3.173-6.261-3.173-12.625-5.875-9.58-3.75-18.981-7.934-28.375-12.125l.111 2.675c.12 3.29.207 6.577.274 9.868q.052 2.132.143 4.262c.492 11.803.492 11.803-2.047 15.268C81.111 160.815 78.996 162 76 162q-.074-9.317-.11-18.634-.015-3.17-.04-6.34c-.025-3.037-.036-6.072-.045-9.108l-.032-2.87v-2.668l-.014-2.349C76 118 76 118 78 115"/><path fill="#5cc8f2" d="M138 68c9.795 1.088 9.795 1.088 14.945 3.914 2.086 1.103 4.16 1.941 6.368 2.773 6.055 2.357 11.86 5.218 17.715 8.026 4.136 1.974 8.257 3.883 12.535 5.537 3.374 1.313 6.705 2.684 10 4.188l2.503 1.12C204 95 204 95 204.777 97.66L205 100c-5.377 3.73-10.759 6.207-16.864 8.553-5.093 1.977-10.023 4.21-14.948 6.572-5.224 2.5-10.435 4.872-15.852 6.934-3.653 1.472-7.17 3.235-10.695 4.988-4.942 1.784-8.339 1.25-13.032-.875a420 420 0 0 1-4.859-2.422q-2.557-1.255-5.117-2.504l-2.448-1.2c-3.209-1.536-6.49-2.824-9.81-4.093-4.096-1.644-8.063-3.569-12.059-5.441-3.22-1.469-6.47-2.815-9.754-4.137-4.258-1.743-7.885-3.617-11.562-6.375.188-2.312.188-2.312 1-5 3.8-2.628 8.003-4.505 12.188-6.437l2.025-.942c4.272-1.969 8.58-3.759 12.97-5.445 4.76-1.987 9.388-4.266 14.018-6.535C125.677 73 125.677 73 129 73v10l-2.7 1.145a817 817 0 0 0-10.382 4.554l-3.322 1.475q-3.44 1.527-6.875 3.062l-3.303 1.463-3.007 1.339C97 97 97 97 95 97v2l2.113.324c3.297.772 6.024 2.02 9.075 3.489 4.642 2.193 9.284 4.2 14.074 6.042 2.197.919 4.31 1.895 6.445 2.946l1.99.97q1.941.955 3.863 1.944c4.381 2.146 7.597 2.911 12.44 2.285 3.23-1.18 6.253-2.685 9.313-4.25q2.538-1.253 5.082-2.5l2.428-1.2c3.235-1.56 6.543-2.87 9.9-4.144 3.72-1.48 7.317-3.227 10.93-4.953C185 99 185 99 188 99v-2l-3.125-.562c-4.82-1.19-8.987-3.413-13.374-5.691-5.057-2.6-10.233-4.642-15.567-6.614-3.798-1.467-7.339-3.23-10.934-5.133v12l4 2c1 3.313 1 3.313 1 7-1.766 2.802-3.03 4.515-6 6-2.812.438-2.812.438-6 0-3.671-3.203-3.671-3.203-5-6-.062-3.75-.062-3.75 1-7l4-2z"/><path fill="#2a60ed" d="m96.25 195.563 2.14.816L100 197v2l-5 1v2l3.75 1.188c9.253 3.098 18.103 7.138 26.91 11.313 8.817 4.174 14.479 6.377 24.34 4.499v-2l3.188-1.125c3.804-1.418 7.452-3.081 11.125-4.812a147 147 0 0 1 15.445-6.204c2.47-.852 2.47-.852 5.242-2.859h3v-2l-5-1v-2c6.676-2.928 10.727-3.424 17.813-1.062C203 197 203 197 205 199c-.33 3.297-.623 4.623-3 7a138 138 0 0 1-5.875 2.25c-4.528 1.692-8.833 3.53-13.125 5.75-5.135 2.649-10.353 4.704-15.766 6.71-3.271 1.305-6.354 2.802-9.484 4.415-13.002 6.638-13.002 6.638-20.75 4.875a94 94 0 0 1-5.562-2.187l-3.16-1.356c-4.376-1.945-8.716-3.962-13.055-5.984-6.045-2.763-12.208-5.241-18.36-7.754-15.54-6.396-15.54-6.396-18.863-9.719.158-3.076.511-4.529 2.75-6.687 6.17-3.6 9.034-3.23 15.5-.75"/></svg>