<?xml version="1.0" encoding="UTF-8"?>
<svg version="1.1" xmlns="http://www.w3.org/2000/svg" width="270" height="212">
<path d="M0 0 C6.68908935 0.48512224 12.1248861 3.00376353 18.1875 5.75 C20.25227731 6.66870372 22.31737795 7.5866811 24.3828125 8.50390625 C25.85089355 9.15963623 25.85089355 9.15963623 27.34863281 9.82861328 C30.39655812 11.17520128 33.47140278 12.44352185 36.5625 13.6875 C53.79276316 20.79276316 53.79276316 20.79276316 58 25 C58.17488254 27.43744897 58.23177405 29.7593608 58.1953125 32.1953125 C58.1924826 32.90275604 58.18965271 33.61019958 58.18673706 34.33908081 C58.17553137 36.6012251 58.15042679 38.86297515 58.125 41.125 C58.11497067 42.65754637 58.10584474 44.19009894 58.09765625 45.72265625 C58.07559086 49.48192301 58.04105896 53.24089464 58 57 C59.0725 56.814375 60.145 56.62875 61.25 56.4375 C64.40391546 56.0695432 66.09818492 55.95534657 69 57 C68.97381592 56.05157227 68.94763184 55.10314453 68.9206543 54.12597656 C68.83532916 50.5997801 68.77270471 47.07468335 68.7253418 43.54785156 C68.70022897 42.0229357 68.66613117 40.49813985 68.62280273 38.97363281 C68.56199956 36.77899574 68.53376113 34.5859519 68.51171875 32.390625 C68.48553467 31.07094727 68.45935059 29.75126953 68.43237305 28.39160156 C69 25 69 25 71.33984375 22.63793945 C74.26157013 20.83894328 77.18182288 19.34349272 80.3125 17.9375 C81.46621094 17.41929688 82.61992187 16.90109375 83.80859375 16.3671875 C86.75340318 15.10564123 89.70327124 13.979556 92.71875 12.90625 C96.67504449 11.33457137 100.49488554 9.45419942 104.33984375 7.63061523 C108.90802263 5.47578136 113.51812431 3.51952378 118.2421875 1.7265625 C119.99366937 1.13412319 119.99366937 1.13412319 121 0 C126.52941176 -0.23529412 126.52941176 -0.23529412 129 1 C129 16.18 129 31.36 129 47 C122.14237702 44.25695081 122.14237702 44.25695081 120 42 C119.54589844 38.90551758 119.54589844 38.90551758 119.609375 35.14453125 C119.61503479 34.48289474 119.62069458 33.82125824 119.62652588 33.13957214 C119.64888753 31.02980668 119.69907629 28.92175048 119.75 26.8125 C119.7700656 25.38088394 119.78831628 23.9492412 119.8046875 22.51757812 C119.84874931 19.01116485 119.91777223 15.50574928 120 12 C114.86834384 13.8681029 109.93275258 15.8937298 105 18.25 C99.44352857 20.87388929 93.86670244 23.44489576 88.25 25.9375 C87.57066406 26.24397461 86.89132813 26.55044922 86.19140625 26.86621094 C83.28356715 28.14760657 81.21465522 29 78 29 C78 44.51 78 60.02 78 76 C79.65 75.01 81.3 74.02 83 73 C84.32 73 85.64 73 87 73 C87 70.69 87 68.38 87 66 C87.70125 66.350625 88.4025 66.70125 89.125 67.0625 C93.828068 68.59610913 97.11979423 67.40468115 101.54296875 65.37109375 C102.76206568 64.73464379 103.97689607 64.08995996 105.1875 63.4375 C111.61179061 60 111.61179061 60 115 60 C115 59.34 115 58.68 115 58 C114.278125 57.7525 113.55625 57.505 112.8125 57.25 C110 56 110 56 107.8125 53.9375 C104.7345886 51.81716104 103.55986879 51.7430873 99.9375 51.5625 C96.28070406 51.3168943 95.28703056 51.2269544 92.3125 48.875 C90.56759499 45.05282711 90.8340259 43.00803597 92 39 C93.6875 36.5625 93.6875 36.5625 96 35 C99.7162031 34.36745479 101.42328191 34.66469878 104.6875 36.5625 C107 39 107 39 108.4375 42.5625 C110.35697552 46.78534614 111.82250256 47.24545107 116 49 C117.67523395 50.32255312 119.34106818 51.65705519 121 53 C123.12898434 54.21372005 125.26082899 55.41008858 127.42578125 56.55859375 C129 58 129 58 129.23046875 60.66015625 C129.11638672 61.81837891 129.11638672 61.81837891 129 63 C122.98614095 66.15321258 117.00061595 69.08487419 110.625 71.4375 C104.61737619 73.66787531 99.00189917 76.43847811 93.3125 79.359375 C89.60863382 81.19383702 85.86030538 82.73760086 81.98828125 84.17578125 C79.74335812 85.03113341 79.74335812 85.03113341 77 87 C73.9375 87.3125 73.9375 87.3125 71 87 C68.18228157 82.77342235 68.57913421 78.55159827 68.43359375 73.62890625 C68.35453602 71.74870715 68.18434812 69.87280927 68 68 C65.04335481 66.5216774 62.25770263 66.93967217 59 67 C58.96261719 68.19238281 58.92523438 69.38476562 58.88671875 70.61328125 C58.82105968 72.179719 58.75461232 73.74612384 58.6875 75.3125 C58.66494141 76.09818359 58.64238281 76.88386719 58.61914062 77.69335938 C58.58369141 78.45068359 58.54824219 79.20800781 58.51171875 79.98828125 C58.48553467 80.68477783 58.45935059 81.38127441 58.43237305 82.09887695 C57.87304951 84.55819509 57.00004615 85.494301 55 87 C49.48831817 87 45.60846065 84.93122235 40.8046875 82.390625 C37.76052632 80.88126375 34.68427424 79.68380078 31.5 78.5 C26.61865042 76.67450115 22.03205426 74.58878099 17.41015625 72.19140625 C14.89737404 70.94926918 12.35925081 69.89770188 9.75 68.875 C8.93144531 68.55015625 8.11289063 68.2253125 7.26953125 67.890625 C5.3281189 67.12876267 3.38315724 66.37595542 1.4375 65.625 C-1 64 -1 64 -1.65234375 60.8984375 C-1.82443359 59.46371094 -1.82443359 59.46371094 -2 58 C5 53.33333333 12 48.66666667 19 44 C19.70381157 42.01276732 20.3711811 40.01222047 21 38 C23.38125912 35.61874088 24.10707538 35.65478359 27.375 35.5625 C30.89121404 35.65324101 31.75495592 35.80746536 34.625 38.0625 C36.42593997 41.90996265 36.19823746 43.95594856 35 48 C33.5 49.875 33.5 49.875 31 51 C29.60645299 51.13125593 28.20989923 51.23202151 26.8125 51.3125 C21.20284035 51.74043424 17.23865869 54.43309302 13 58 C12.67 58.66 12.34 59.32 12 60 C12.556875 60.17015625 13.11375 60.3403125 13.6875 60.515625 C17.69124419 61.78708431 21.26310627 63.09185603 24.875 65.25 C29.81359394 67.88924858 34.65997954 66.9030917 40 66 C40 66.9075 40 67.815 40 68.75 C40.33 69.8225 40.66 70.895 41 72 C43.64 73.32 46.28 74.64 49 76 C48.67 60.82 48.34 45.64 48 30 C41.73901533 26.82705163 41.73901533 26.82705163 35.375 24.125 C25.79463451 20.37551951 16.39371013 16.19093763 7 12 C7.03665771 12.88260498 7.07331543 13.76520996 7.11108398 14.67456055 C7.23072966 17.96427564 7.31828398 21.25166698 7.38452148 24.54272461 C7.41962856 25.96399504 7.4673303 27.38501432 7.52807617 28.80541992 C8.02002913 40.60815697 8.02002913 40.60815697 5.48095703 44.07275391 C3.11025803 45.81528221 0.99634862 47 -2 47 C-2.04938976 40.78866744 -2.08571476 34.57744888 -2.10986328 28.3659668 C-2.11992894 26.25233978 -2.13358257 24.1387267 -2.15087891 22.02514648 C-2.1751023 18.98938558 -2.18647738 15.95380857 -2.1953125 12.91796875 C-2.20563507 11.97100632 -2.21595764 11.02404388 -2.22659302 10.04838562 C-2.22674408 9.16769913 -2.22689514 8.28701263 -2.22705078 7.37963867 C-2.231492 6.60464523 -2.23593323 5.82965179 -2.24050903 5.03117371 C-2 3 -2 3 0 0 Z " fill="#408EEF" transform="translate(78,86)"/>
<path d="M0 0 C9.79483696 1.08831522 9.79483696 1.08831522 14.9453125 3.9140625 C17.03124906 5.01651566 19.10579607 5.85521374 21.3125 6.6875 C27.36768351 9.04385823 33.17377951 11.90466037 39.02832031 14.71264648 C43.16430979 16.68693905 47.28512052 18.59598955 51.5625 20.25 C54.93691834 21.5629339 58.26784455 22.93361935 61.5625 24.4375 C62.38878906 24.80746094 63.21507812 25.17742187 64.06640625 25.55859375 C66 27 66 27 66.77734375 29.66015625 C66.85082031 30.43230469 66.92429687 31.20445313 67 32 C61.62342307 35.73068603 56.24121301 38.2070948 50.13574219 40.55273438 C45.0425866 42.52992991 40.11343867 44.76391461 35.1875 47.125 C29.96363657 49.62587871 24.75268439 51.99727198 19.3359375 54.05859375 C15.68264571 55.530907 12.16675876 57.29436541 8.640625 59.046875 C3.69874811 60.83062938 0.30200919 60.2976323 -4.390625 58.171875 C-6.01571576 57.3753043 -7.63534645 56.56751989 -9.25 55.75 C-10.9546664 54.91319612 -12.6603852 54.07853245 -14.3671875 53.24609375 C-15.57906738 52.65223877 -15.57906738 52.65223877 -16.81542969 52.04638672 C-20.0239806 50.50952382 -23.30407633 49.22153334 -26.625 47.953125 C-30.72086001 46.3093917 -34.6884639 44.38428847 -38.68359375 42.51171875 C-41.90473089 41.04342655 -45.15416384 39.69728532 -48.4375 38.375 C-52.69598432 36.63212364 -56.32297896 34.75776578 -60 32 C-59.8125 29.6875 -59.8125 29.6875 -59 27 C-55.19996582 24.37246707 -50.99660723 22.49530061 -46.8125 20.5625 C-46.14395996 20.25175537 -45.47541992 19.94101074 -44.78662109 19.62084961 C-40.51513638 17.65197017 -36.2073284 15.86231142 -31.81640625 14.17578125 C-27.05738432 12.1890051 -22.42945285 9.90998563 -17.79931641 7.64086914 C-12.3225601 5 -12.3225601 5 -9 5 C-9 8.3 -9 11.6 -9 15 C-9.89074219 15.37769531 -10.78148437 15.75539063 -11.69921875 16.14453125 C-15.17365724 17.63282636 -18.6285839 19.16288623 -22.08203125 20.69921875 C-23.17837891 21.18583984 -24.27472656 21.67246094 -25.40429688 22.17382812 C-27.69709429 23.19211924 -29.98874351 24.21299921 -32.27929688 25.23632812 C-33.36919922 25.71908203 -34.45910156 26.20183594 -35.58203125 26.69921875 C-37.07053589 27.36183716 -37.07053589 27.36183716 -38.58911133 28.0378418 C-41 29 -41 29 -43 29 C-43 29.66 -43 30.32 -43 31 C-42.30261719 31.10699219 -41.60523437 31.21398437 -40.88671875 31.32421875 C-37.589854 32.09601523 -34.86293854 33.34487123 -31.8125 34.8125 C-27.17036669 37.0062069 -22.52780183 39.01334545 -17.73828125 40.85546875 C-15.5406835 41.77400818 -13.42759615 42.74992928 -11.29296875 43.80078125 C-10.63603027 44.12119385 -9.9790918 44.44160645 -9.30224609 44.77172852 C-8.00895757 45.40758215 -6.72109897 46.05464478 -5.43994141 46.71459961 C-1.0585824 48.86077453 2.15738974 49.6261996 7 49 C10.23093484 47.82035423 13.25301607 46.31511877 16.3125 44.75 C18.0054548 43.91452422 19.69945522 43.08116363 21.39453125 42.25 C22.19584473 41.85425781 22.9971582 41.45851562 23.82275391 41.05078125 C27.0582373 39.48927413 30.36646889 38.18030355 33.72265625 36.90625 C37.44292988 35.42579806 41.04042845 33.67852914 44.65234375 31.953125 C47 31 47 31 50 31 C50 30.34 50 29.68 50 29 C48.96875 28.814375 47.9375 28.62875 46.875 28.4375 C42.05585738 27.24758824 37.88780613 25.02513205 33.50097656 22.74658203 C28.44352579 20.14780139 23.26821681 18.10472947 17.93359375 16.1328125 C14.13613136 14.66641557 10.59538339 12.90343827 7 11 C7 14.96 7 18.92 7 23 C8.32 23.66 9.64 24.32 11 25 C12 28.3125 12 28.3125 12 32 C10.23358828 34.80189446 8.96950178 36.51524911 6 38 C3.1875 38.4375 3.1875 38.4375 0 38 C-3.67146814 34.79722992 -3.67146814 34.79722992 -5 32 C-5.0625 28.25 -5.0625 28.25 -4 25 C-2.68 24.34 -1.36 23.68 0 23 C0 15.41 0 7.82 0 0 Z " fill="#5CC8F2" transform="translate(138,39)"/>
<path d="M0 0 C0.70640625 0.26941406 1.4128125 0.53882813 2.140625 0.81640625 C2.67171875 1.02136719 3.2028125 1.22632813 3.75 1.4375 C3.75 2.0975 3.75 2.7575 3.75 3.4375 C2.1 3.7675 0.45 4.0975 -1.25 4.4375 C-1.25 5.0975 -1.25 5.7575 -1.25 6.4375 C-0.0125 6.829375 1.225 7.22125 2.5 7.625 C11.75320341 10.72381423 20.60292315 14.76382606 29.41064453 18.93847656 C38.22659718 23.11281457 43.88851565 25.31587797 53.75 23.4375 C53.75 22.7775 53.75 22.1175 53.75 21.4375 C54.801875 21.06625 55.85375 20.695 56.9375 20.3125 C60.74224166 18.89412458 64.39011571 17.23101646 68.0625 15.5 C73.12921606 13.12294927 78.20797928 11.08969692 83.5078125 9.296875 C85.97813107 8.4444299 85.97813107 8.4444299 88.75 6.4375 C89.74 6.4375 90.73 6.4375 91.75 6.4375 C91.75 5.7775 91.75 5.1175 91.75 4.4375 C90.1 4.1075 88.45 3.7775 86.75 3.4375 C86.75 2.7775 86.75 2.1175 86.75 1.4375 C93.42593941 -1.4905436 97.47742788 -1.98669071 104.5625 0.375 C106.75 1.4375 106.75 1.4375 108.75 3.4375 C108.42028521 6.73464793 108.1273161 8.0601839 105.75 10.4375 C103.81103454 11.23623801 101.8482578 11.97769503 99.875 12.6875 C95.34732008 14.37916063 91.04247522 16.21685949 86.75 18.4375 C81.61487433 21.08614377 76.39687066 23.1414116 70.984375 25.1484375 C67.71256818 26.45241848 64.62995999 27.94985564 61.5 29.5625 C48.49812058 36.20066271 48.49812058 36.20066271 40.75 34.4375 C38.87302113 33.76924228 37.01800436 33.03668407 35.1875 32.25 C34.14464844 31.80269531 33.10179687 31.35539062 32.02734375 30.89453125 C27.65226677 28.94947319 23.31238415 26.93260394 18.97265625 24.91015625 C12.92754615 22.14772412 6.76516801 19.66910038 0.61328125 17.15625 C-14.92657249 10.76092751 -14.92657249 10.76092751 -18.25 7.4375 C-18.09224143 4.36120784 -17.73865144 2.9086996 -15.5 0.75 C-9.32958242 -2.84941025 -6.46611235 -2.4786764 0 0 Z " fill="#2A60ED" transform="translate(96.25,166.5625)"/>
</svg>
