<?xml version="1.0" standalone="no"?>
<!DOCTYPE svg PUBLIC "-//W3C//DTD SVG 20010904//EN"
 "http://www.w3.org/TR/2001/REC-SVG-20010904/DTD/svg10.dtd">
<svg version="1.0" xmlns="http://www.w3.org/2000/svg"
 width="300.000000pt" height="296.000000pt" viewBox="0 0 300.000000 296.000000"
 preserveAspectRatio="xMidYMid meet">
<g transform="translate(0.000000,296.000000) scale(0.066667,-0.066667)"
fill="#000000" stroke="none">
<path fill="#8EAAB2" d="M2010 3958 c-128 -75 -337 -198 -465 -273 -128 -74 -324 -189 -435
-254 -111 -66 -250 -147 -307 -181 -58 -33 -114 -67 -125 -75 -14 -11 23 -40
142 -110 161 -95 196 -110 176 -78 -7 11 -4 14 7 7 10 -6 14 -17 9 -24 -12
-20 76 -61 108 -51 20 6 22 5 8 -5 -41 -29 591 -370 770 -415 399 -101 775
-35 1169 207 58 35 256 151 439 258 184 106 334 197 334 201 -1 10 -1576 930
-1592 930 -3 0 -110 -62 -238 -137z m419 -403 c352 -211 635 -375 647 -375 58
0 -63 -80 -416 -273 -329 -181 -557 -158 -994 100 -207 123 -254 146 -271 135
-8 -5 -11 2 -6 15 5 13 16 23 23 23 14 0 569 313 754 425 49 29 93 51 98 49 5
-3 79 -47 165 -99z m-1209 -337 c-4 -13 -18 -23 -31 -23 -18 0 -19 4 -4 23 10
12 24 22 31 22 7 0 9 -10 4 -22z m-100 -18 c-5 -5 -10 -1 -10 10 0 11 5 16 10
10 6 -5 6 -14 0 -20z m2251 -31 c1 -53 -52 -108 -73 -77 -51 75 -48 88 20 88
23 0 42 7 42 15 0 8 3 15 6 15 3 0 5 -19 5 -41z m-2216 -4 c0 -8 -3 -15 -7
-15 -3 0 -10 7 -15 15 -6 8 -3 15 6 15 9 0 16 -7 16 -15z m45 0 c0 -8 -7 -15
-16 -15 -9 0 -12 7 -6 15 5 8 12 15 15 15 4 0 7 -7 7 -15z m53 0 c5 -8 2 -15
-7 -15 -9 0 -16 7 -16 15 0 8 3 15 7 15 3 0 10 -7 16 -15z m1987 -15 c0 -8 -7
-15 -15 -15 -8 0 -15 7 -15 15 0 8 7 15 15 15 8 0 15 -7 15 -15z m-2004 -102
c-9 -14 -29 -27 -45 -30 -27 -4 -27 -3 1 19 30 24 30 24 -3 33 -27 7 -29 13
-16 35 16 25 18 25 48 -2 24 -23 27 -35 15 -55z m-163 57 c5 -8 5 -15 1 -15
-4 0 -11 7 -16 15 -6 8 -6 15 -2 15 4 0 11 -7 17 -15z m-210 -30 c5 -8 5 -15
1 -15 -4 0 -11 7 -16 15 -6 8 -6 15 -2 15 4 0 11 -7 17 -15z m73 3 c4 -7 -2
-13 -13 -13 -12 0 -18 6 -14 13 4 6 10 12 14 12 3 0 9 -6 13 -12z m69 -18 c0
-8 -7 -15 -16 -15 -9 0 -12 7 -6 15 5 8 12 15 15 15 4 0 7 -7 7 -15z m310 -40
c-5 -5 -10 -1 -10 10 0 11 5 16 10 10 6 -5 6 -14 0 -20z m-55 -27 c0 -13 -7
-23 -15 -23 -8 0 -15 10 -15 23 0 12 7 22 15 22 8 0 15 -10 15 -22z m-170 -31
c0 -15 -14 -18 -52 -8 -3 0 -1 7 3 13 12 20 49 15 49 -5z"/>
<path fill="#E6D2AC" d="M611 2161 c2 -696 7 -924 20 -929 12 -4 14 1 6 13 -8 13 -6 16 6 9
10 -6 14 -17 10 -23 -4 -7 199 -133 451 -281 253 -147 514 -300 581 -339 68
-39 131 -68 142 -64 11 4 16 2 11 -6 -6 -10 299 -205 360 -230 14 -6 7 1123
-8 1242 -62 490 -281 774 -847 1101 -132 76 -303 176 -379 221 -76 45 -145 78
-154 73 -9 -6 -14 -3 -12 5 3 9 -39 42 -93 73 l-97 58 3 -923z m206 540 c5 -8
3 -17 -4 -22 -7 -4 -13 2 -13 14 0 25 5 28 17 8z m68 -66 c0 -6 8 -7 17 -1 11
6 14 4 7 -6 -5 -9 -21 -12 -34 -7 -14 5 -21 3 -16 -5 5 -8 -9 -15 -31 -16 -24
-1 -29 1 -13 5 24 7 25 9 3 25 -20 15 -16 18 22 18 25 0 45 -6 45 -13z m60
-17 c0 -3 -8 -11 -17 -17 -11 -7 -14 -4 -7 7 11 17 24 23 24 10z m-81 -93 c1
-34 -4 -45 -19 -40 -11 5 -20 15 -20 22 0 8 7 11 15 6 29 -18 15 10 -18 36
l-33 27 36 -2 c30 -1 37 -10 39 -49z m51 33 c0 -3 -8 -11 -17 -17 -11 -7 -14
-4 -7 7 11 17 24 23 24 10z m346 -282 c464 -279 539 -417 562 -1022 l11 -299
-58 35 c-147 87 -493 288 -632 367 l-154 87 0 493 c0 271 4 493 8 493 4 0 123
-69 263 -154z m-488 -926 c5 -8 5 -15 1 -15 -4 0 -11 7 -16 15 -6 8 -6 15 -2
15 4 0 11 -7 17 -15z m159 -41 c19 -24 18 -25 -6 -6 -14 11 -26 23 -26 26 0
13 12 5 32 -20z m-47 -12 c0 -2 -9 -11 -20 -20 -15 -12 -20 -12 -20 3 0 11 9
20 20 20 11 0 20 -1 20 -3z m1147 -277 c6 -8 0 -11 -14 -6 -26 10 -30 21 -9
21 8 0 18 -7 23 -15z m-27 -40 c-5 -5 -10 -1 -10 10 0 11 5 16 10 10 6 -5 6
-14 0 -20z m-535 -27 c0 -3 -8 -11 -17 -17 -11 -7 -14 -4 -7 7 11 17 24 23 24
10z m337 -7 c5 -8 3 -17 -4 -22 -7 -4 -13 2 -13 14 0 25 5 28 17 8z m120 1
c-4 -4 4 -19 18 -35 13 -15 19 -27 13 -27 -6 0 -2 -11 9 -25 12 -15 13 -21 3
-15 -10 6 -22 4 -27 -5 -6 -8 4 -15 20 -15 17 0 35 -7 40 -16 6 -9 21 -12 35
-7 19 8 21 6 6 -8 -12 -13 -24 -14 -37 -3 -11 8 -38 19 -61 25 -22 5 -41 17
-41 25 0 9 6 12 14 7 27 -16 25 45 -2 76 -23 26 -24 31 -5 31 13 0 20 -3 15
-8z m78 -27 c-5 -6 -10 -1 -10 10 0 11 5 16 10 10 6 -5 6 -14 0 -20z m-137
-26 c18 -18 18 -22 -1 -30 -12 -4 -20 0 -18 10 2 10 -5 17 -16 14 -11 -2 -16
3 -11 12 13 20 21 19 46 -6z m-75 -6 c-4 -4 0 -17 9 -28 25 -30 6 -24 -22 7
-21 24 -22 28 -3 28 13 0 20 -3 16 -7z m232 -10 c0 -3 -8 -11 -17 -17 -11 -7
-14 -4 -7 7 11 17 24 23 24 10z m-307 -23 c5 -8 5 -15 1 -15 -4 0 -11 7 -16
15 -6 8 -6 15 -2 15 4 0 11 -7 17 -15z m187 -82 c0 -9 -7 -5 -15 7 -8 12 -15
29 -15 38 0 8 7 4 15 -8 8 -12 15 -29 15 -37z m-37 7 c5 -8 5 -15 1 -15 -4 0
-11 7 -16 15 -6 8 -6 15 -2 15 4 0 11 -7 17 -15z m106 -16 c15 -17 21 -30 13
-28 -35 7 -41 -3 -14 -24 29 -21 29 -22 1 -12 -22 8 -26 5 -16 -11 21 -34 20
-54 -2 -54 -15 0 -16 5 -4 20 15 18 8 26 -20 22 -5 -1 -7 17 -3 38 6 34 4 37
-14 22 -17 -14 -25 -14 -33 0 -7 11 -5 14 5 8 9 -6 20 -4 26 5 5 9 17 11 26 5
10 -6 13 -1 7 15 -13 33 -7 32 28 -6z m-226 1 c5 -8 5 -15 1 -15 -4 0 -11 7
-16 15 -6 8 -6 15 -2 15 4 0 11 -7 17 -15z m32 -10 c-5 -6 -10 -1 -10 10 0 11
5 16 10 10 6 -5 6 -14 0 -20z m275 1 c0 -13 -29 -20 -36 -9 -4 7 2 13 14 13
12 0 22 -2 22 -4z m2 -122 c19 -24 18 -25 -6 -6 -25 20 -33 32 -20 32 3 0 15
-12 26 -26z"/>
<path fill="#C29E79" d="M3840 3055 c-29 -19 -241 -145 -472 -280 -565 -329 -557 -324 -666
-427 -186 -176 -310 -406 -372 -690 -18 -82 -25 -248 -31 -733 l-7 -627 65 40
c35 23 169 102 297 176 129 75 335 194 459 266 123 72 351 204 506 294 l281
163 0 342 0 342 -64 -37 c-35 -20 -121 -69 -191 -109 l-127 -73 -5 -129 -4
-130 -243 -139 c-134 -77 -319 -185 -412 -241 l-169 -102 0 258 c0 620 81 771
570 1063 l248 148 7 -142 8 -142 191 108 191 109 0 363 c0 200 -2 364 -4 364
-2 0 -28 -16 -56 -35z m-1325 -2165 c-5 -6 -10 -1 -10 10 0 11 5 16 10 10 6
-5 6 -14 0 -20z m74 -50 c11 0 21 -10 21 -22 0 -13 -4 -23 -10 -23 -16 0 -49
51 -48 75 1 16 4 15 8 -4 4 -14 17 -26 29 -26z m-59 20 c-5 -6 -14 -6 -20 0
-5 6 -1 10 10 10 11 0 16 -4 10 -10z m-40 -35 c0 -8 -3 -15 -7 -15 -3 0 -10 7
-15 15 -6 8 -3 15 6 15 9 0 16 -7 16 -15z m145 -10 c-5 -6 -10 -1 -10 10 0 11
5 16 10 10 6 -5 6 -14 0 -20z m-70 -42 c0 -3 -7 -10 -15 -15 -8 -6 -15 -3 -15
6 0 9 7 16 15 16 8 0 15 -3 15 -7z m25 -33 c-5 -6 -10 -1 -10 10 0 11 5 16 10
10 6 -5 6 -14 0 -20z m45 0 c-5 -6 -10 -1 -10 10 0 11 5 16 10 10 6 -5 6 -14
0 -20z"/>
<path d="M830 2555 c6 -5 15 -5 20 0 6 6 1 10 -10 10 -11 0 -16 -4 -10 -10z"/>
</g>
</svg>
