<?xml version="1.0" standalone="no"?>
<!DOCTYPE svg PUBLIC "-//W3C//DTD SVG 20010904//EN" "http://www.w3.org/TR/2001/REC-SVG-20010904/DTD/svg10.dtd">
<svg version="1.0" xmlns="http://www.w3.org/2000/svg"
    width="300.000000pt" height="296.000000pt" viewBox="0 0 300.000000 296.000000"
    preserveAspectRatio="xMidYMid meet">
    <g transform="translate(0.000000,296.000000) scale(0.066667,-0.066667)"
        fill="#000000" stroke="none">
        <path fill="#8EAAB2"
            d="M2010 3958c-128-75-337-198-465-273-128-74-324-189-435-254-111-66-250-147-307-181-58-33-114-67-125-75-14-11 23-40 142-110 161-95 88-58 172-97 10-6 53-39 19-11 47-38 76-61 108-51 20 6 22 5 8-5-41-29 591-370 770-415 399-101 775-35 1169 207 58 35 256 151 439 258 184 106 334 197 334 201-1 10-1576 930-1592 930-3 0-110-62-238-137zm419-403c352-211 635-375 647-375 58 0-63-80-416-273-329-181-557-158-994 100-207 123-254 146-271 135-8-5-11 2-6 15s16 23 23 23c14 0 569 313 754 425 49 29 93 51 98 49 5-3 79-47 165-99z" />
        <path fill="#E6D2AC"
            d="M980 2419c-4 0-8-222-8-493V1433l154-87c139-79 485-280 632-367l58-35-11 299c-23 605-98 743-562 1022Zm-381-280-3 923 97-58c54-31 96-64 93-73-2-8 3-11 12-5 9 5 78-28 154-73s247-145 379-221c566-327 785-611 847-1101 15-119 22-1248 8-1242-61 25-366 220-360 230 5 8 0 10-11 6s-74 25-142 64c-67 39-328 192-581 339-252 148-455 274-451 281 4 6 0 17-10 23-13 5-18 233-20 929Z" />
        <path fill="#C29E79"
            d="M3840 3055c-29-19-241-145-472-280-565-329-557-324-666-427-186-176-310-406-372-690-18-82-25-248-31-733l-7-627 65 40c35 23 169 102 297 176 129 75 335 194 459 266 123 72 351 204 506 294l281 163v342 342l-64-37c-35-20-121-69-191-109l-127-73-5-129-4-130-243-139c-134-77-319-185-412-241l-169-102v258c0 620 81 771 570 1063l248 148 7-142 8-142 191 108 191 109v363c0 200-2 364-4 364s-28-16-56-35z" />
    </g>
</svg>